<?xml version="1.0" standalone="no"?>
<!DOCTYPE svg PUBLIC "-//W3C//DTD SVG 20010904//EN"
 "http://www.w3.org/TR/2001/REC-SVG-20010904/DTD/svg10.dtd">
<svg version="1.0" xmlns="http://www.w3.org/2000/svg"
 width="700.000000pt" height="700.000000pt" viewBox="0 0 700.000000 700.000000"
 preserveAspectRatio="xMidYMid meet">
<metadata>
Created by potrace 1.11, written by Peter Selinger 2001-2013
</metadata>
<g transform="translate(0.000000,700.000000) scale(0.100000,-0.100000)"
fill="#000000" stroke="none">
<path d="M545 6985 c-244 -53 -435 -225 -512 -463 l-28 -87 0 -2935 c0 -2819
1 -2937 18 -2995 74 -242 252 -419 487 -482 61 -17 225 -18 2990 -18 1609 0
2943 4 2965 8 22 4 46 8 53 9 6 1 12 5 12 9 0 13 44 18 57 7 10 -8 12 -7 8 4
-4 9 7 20 30 31 42 20 49 21 39 5 -4 -7 -3 -8 5 -4 6 4 9 11 6 16 -4 6 45 47
52 42 1 -1 21 17 45 38 23 22 46 40 51 40 4 0 5 5 2 10 -3 6 1 10 10 10 9 0
14 4 11 9 -3 5 9 25 28 44 19 20 31 38 28 41 -3 3 2 14 10 23 9 10 19 28 23
41 3 12 11 19 17 16 6 -4 8 -3 5 3 -3 5 -1 26 5 46 10 32 14 35 27 24 14 -10
14 -10 3 5 -10 13 -11 29 -3 75 13 67 11 5861 -1 5902 -80 269 -230 431 -473
513 l-70 23 -2920 2 c-2378 1 -2931 -1 -2980 -12z"/>
<path d="M6867 239 c7 -7 15 -10 18 -7 3 3 -2 9 -12 12 -14 6 -15 5 -6 -5z"/>
<path d="M6839 173 c-13 -16 -12 -17 4 -4 16 13 21 21 13 21 -2 0 -10 -8 -17
-17z"/>
<path d="M6779 153 c-13 -17 -13 -17 6 -3 11 8 22 16 24 17 2 2 0 3 -6 3 -6 0
-17 -8 -24 -17z"/>
</g>
</svg>
