<?xml version="1.0" encoding="UTF-8" standalone="no"?>
<!-- Uploaded to: SVG Repo, www.svgrepo.com, Generator: SVG Repo Mixer Tools -->

<svg
   version="1.1"
   id="Layer_1"
   viewBox="0 0 345.30304 345.30305"
   xml:space="preserve"
   sodipodi:docname="vue-konami.svg"
   inkscape:version="1.2 (dc2aedaf03, 2022-05-15)"
   xmlns:inkscape="http://www.inkscape.org/namespaces/inkscape"
   xmlns:sodipodi="http://sodipodi.sourceforge.net/DTD/sodipodi-0.dtd"
   xmlns="http://www.w3.org/2000/svg"
   xmlns:svg="http://www.w3.org/2000/svg"><defs
   id="defs244" /><sodipodi:namedview
   id="namedview242"
   pagecolor="#505050"
   bordercolor="#eeeeee"
   borderopacity="1"
   inkscape:showpageshadow="0"
   inkscape:pageopacity="0"
   inkscape:pagecheckerboard="0"
   inkscape:deskcolor="#505050"
   showgrid="false"
   inkscape:zoom="1.03625"
   inkscape:cx="98.914355"
   inkscape:cy="235.46441"
   inkscape:window-width="1920"
   inkscape:window-height="1009"
   inkscape:window-x="1912"
   inkscape:window-y="-8"
   inkscape:window-maximized="1"
   inkscape:current-layer="Layer_1" />


<path
   style="fill:#fff8da"
   d="m 272.94674,59.8 c -26.826,-38.562 -63.13,-59.799 -102.225,-59.799 -39.095,0 -75.398996,21.237 -102.224996,59.799 -25.452,36.587 -39.468,84.911 -39.468,136.071 0,82.397 63.563,149.432 141.692996,149.432 78.13,0 141.693,-67.035 141.693,-149.433 0,-51.159 -14.016,-99.484 -39.468,-136.07 z"
   id="path221" />
<path
   style="fill:#ffd6a0"
   d="m 170.72174,345.303 c 78.13,0 141.693,-67.035 141.693,-149.433 0,-51.16 -14.016,-99.484 -39.468,-136.071 C 246.12074,21.237 209.81674,0 170.72174,0"
   id="path223" />
<path
   style="fill:#5d6d7e;fill-opacity:1"
   d="m 249.59374,150.235 c -6.582,-4.739 -10.208,-7.35 -19.329,-7.35 -9.126,0 -12.752,2.611 -19.336,7.35 -8.255,5.944 -19.56,14.082 -40.205,14.082 -20.645,0 -31.95,-8.138 -40.205,-14.082 -6.583,-4.739 -10.21,-7.35 -19.336,-7.35 -9.122,0 -12.747996,2.61 -19.329996,7.35 -8.254,5.943 -19.558,14.082 -40.203,14.082 -8.135,0 -14.804,-1.274 -20.422,-3.17 -1.45,11.354 -2.2,22.963 -2.2,34.723 0,3.805 0.137,7.576 0.404,11.312 H 312.00974 c 0.268,-3.735 0.405,-7.506 0.405,-11.312 0,-11.761 -0.75,-23.369 -2.2,-34.722 -5.619,1.896 -12.286,3.168 -20.419,3.168 -20.645,0.001 -31.948,-8.139 -40.202,-14.081 z"
   id="path225" />
<path
   style="fill:#35495e;fill-opacity:1"
   d="m 170.72174,207.182 h 141.288 c 0.268,-3.735 0.405,-7.506 0.405,-11.312 0,-11.761 -0.75,-23.369 -2.2,-34.722 -5.619,1.896 -12.286,3.168 -20.419,3.168 -20.644,0 -31.948,-8.14 -40.202,-14.082 -6.582,-4.739 -10.208,-7.35 -19.329,-7.35 -9.126,0 -12.752,2.611 -19.336,7.35 -8.255,5.944 -19.56,14.082 -40.205,14.082"
   id="path227" />
<g
   id="g233"
   style="fill:#66c69b;fill-opacity:1"
   transform="translate(-85.278256,-166.697)">
	<path
   style="fill:#66c69b;fill-opacity:1"
   d="m 256,512 c 62.556,0 115.766,-42.976 134.496,-102.4 H 121.504 C 140.234,469.024 193.444,512 256,512 Z"
   id="path229" />
	<path
   style="fill:#66c69b;fill-opacity:1"
   d="m 156.259,287.943 c 8.254,-5.943 19.558,-14.082 40.203,-14.082 20.647,0 31.951,8.138 40.206,14.082 6.583,4.739 10.21,7.35 19.335,7.35 9.124,0 12.751,-2.611 19.335,-7.35 8.255,-5.943 19.56,-14.082 40.206,-14.082 20.644,0 31.948,8.14 40.202,14.082 6.582,4.739 10.208,7.35 19.329,7.35 5.994,0 9.615,-1.135 13.263,-3.253 -6.687,-24.195 -16.841,-46.467 -30.112,-65.543 -26.826,-38.562 -63.13,-59.799 -102.225,-59.799 -39.095,0 -75.399,21.237 -102.225,59.799 -13.272,19.076 -23.425,41.347 -30.112,65.543 3.647,2.118 7.268,3.253 13.266,3.253 9.121,0 12.747,-2.61 19.329,-7.35 z"
   id="path231" />
</g>
<g
   id="g239"
   style="fill:#41b883;fill-opacity:1"
   transform="translate(-85.278256,-166.697)">
	<path
   style="fill:#41b883;fill-opacity:1"
   d="m 256,512 c 62.556,0 115.766,-42.976 134.496,-102.4 H 256.104 c 0,0 -0.104,63.221 -0.104,102.4 z"
   id="path235" />
	<path
   style="fill:#41b883;fill-opacity:1"
   d="m 256.002,295.293 c 9.124,0 12.751,-2.611 19.335,-7.35 8.255,-5.943 19.56,-14.082 40.206,-14.082 20.644,0 31.948,8.14 40.202,14.082 6.582,4.739 10.208,7.35 19.329,7.35 5.994,0 9.615,-1.135 13.263,-3.253 C 381.65,267.845 371.496,245.573 358.225,226.497 331.399,187.935 295.095,166.698 256,166.698"
   id="path237" />
</g>
</svg>
